<?xml version="1.0" encoding="utf-8"?>
<!-- Generated by Mocodo 4.2.3 -->
<svg width="294" height="120" viewBox="0 0 294 120" xmlns="http://www.w3.org/2000/svg">
<rect x="0" y="0" width="294" height="120" fill="#ffffbf" stroke="none" stroke-width="0"/>

<!-- Association BELONGS_TO -->
<g>
	<line x1="257" y1="60" x2="158" y2="60" stroke="#74add1" stroke-width="2"/>
	<line x1="48" y1="60" x2="158" y2="60" stroke="#74add1" stroke-width="2"/>
	<g>
		<path d="M183 35 a14 14 90 0 1 14 14 V60 h-78 V49 a14 14 90 0 1 14 -14" fill="#abd9e9" stroke="#abd9e9" stroke-width="0"/>
		<path d="M197 60 v11 a14 14 90 0 1 -14 14 H133 a14 14 90 0 1 -14 -14 V60 H78" fill="#e0f3f8" stroke="#e0f3f8" stroke-width="0"/>
		<rect x="119" y="35" width="78" height="50" fill="none" rx="14" stroke="#74add1" stroke-width="2"/>
		<line x1="119" y1="60" x2="197" y2="60" stroke="#74add1" stroke-width="1"/>
		<text x="126" y="52.75" fill="#000000" font-family="Verdana" font-size="12">belongs to</text>
	</g>
	<text x="203" y="77" fill="#d73027" font-family="Verdana" font-size="12">1,1</text>
	<text x="92" y="77" fill="#d73027" font-family="Verdana" font-size="12">0,N</text>
</g>

<!-- Entity CATEGORY -->
<g>
	<g>
		<rect x="9" y="26" width="78" height="25" fill="#fdae61" stroke="none" stroke-width="0" opacity="1"/>
		<rect x="9" y="51" width="78" height="43" fill="#fee090" stroke="none" stroke-width="0" opacity="1"/>
		<rect x="9" y="26" width="78" height="68" fill="none" stroke="#f46d43" stroke-width="2" opacity="1"/>
		<line x1="9" y1="51" x2="87" y2="51" stroke="#f46d43" stroke-width="1"/>
	</g>
	<text x="15" y="43.75" fill="#000000" font-family="Verdana" font-size="12">CATEGORY</text>
	<text x="14" y="68.8" fill="#000000" font-family="Verdana" font-size="12">label</text>
	<line x1="14" y1="71" x2="43" y2="71" stroke="#000000" stroke-width="1"/>
	<text x="14" y="85.8" fill="#000000" font-family="Verdana" font-size="12">route</text>
</g>

<!-- Entity POST -->
<g>
	<g>
		<rect x="229" y="9" width="56" height="25" fill="#fdae61" stroke="none" stroke-width="0" opacity="1"/>
		<rect x="229" y="34" width="56" height="77" fill="#fee090" stroke="none" stroke-width="0" opacity="1"/>
		<rect x="229" y="9" width="56" height="102" fill="none" stroke="#f46d43" stroke-width="2" opacity="1"/>
		<line x1="229" y1="34" x2="285" y2="34" stroke="#f46d43" stroke-width="1"/>
	</g>
	<text x="241" y="26.75" fill="#000000" font-family="Verdana" font-size="12">POST</text>
	<text x="234" y="51.8" fill="#000000" font-family="Verdana" font-size="12">title</text>
	<line x1="234" y1="54" x2="258" y2="54" stroke="#000000" stroke-width="1"/>
	<text x="234" y="68.8" fill="#000000" font-family="Verdana" font-size="12">slug</text>
	<text x="234" y="85.8" fill="#000000" font-family="Verdana" font-size="12">excerpt</text>
	<text x="234" y="102.8" fill="#000000" font-family="Verdana" font-size="12">content</text>
</g>
</svg>